<svg version="1" xmlns="http://www.w3.org/2000/svg" width="620" height="120"><path d="M63.1 11.1C58 18.6 52.4 23 48 23c-2.3 0-4.3.7-5.4 1.9C40.5 27.2 31 45 31 46.6c0 .6-4 9.4-8.9 19.5-9.9 20.6-12.6 27.6-11.2 29.3.5.6 1.2 2.5 1.5 4.1.4 1.8 2.1 4.2 4.1 5.8 2.9 2.3 4.1 2.7 7.1 2.1 1.9-.4 3.8-1.3 4.1-2 .3-.8 1.1-1.4 1.8-1.4 1.6 0 4.5-3.3 4.5-5.2 0-2.6 3.2-12.2 4.7-13.9.7-.8 1.3-2.3 1.3-3.1 0-.9.7-1.8 1.5-2.2.8-.3 1.5-1.2 1.5-2.1 0-2.6 1.7-1.7 2.4 1.2 1.5 6.9 7.1 8.6 18.9 5.9 9.3-2.2 13.7-2.1 13.7.2 0 3-2.7 5.8-7 7.1l-4.1 1.2 3.5 3.9c2.2 2.4 3.3 4.5 3 5.7-.4 1.3.5 2.3 3 3.7 7.1 3.8 16.7-.8 22.1-10.6 2.8-5.3 2.9-5.7 1.9-12.7-1-7.2-1-7.3 1.6-8.6 2.8-1.5 7.2-5.9 8.8-8.9.8-1.6.4-2.3-2.5-4.3-1.8-1.3-3.8-2.3-4.2-2.3-.5 0-1.4-.7-2.1-1.6-.9-1-2.6-1.4-4.9-1.2l-3.6.3-1.7-7c-1-3.8-2.7-13-3.9-20.5-1.2-7.4-2.8-14.5-3.5-15.6-.8-1.4-4.1-3.1-9.4-4.8C70.5 7.2 66.8 6 66.7 6c-.1 0-1.7 2.3-3.6 5.1zm5.4 41.1l2.2 9.3-2.4.7c-3.8 1-18.3 2.1-18.3 1.4 0-2.2 14.8-22.1 15.7-21.2.3.3 1.6 4.7 2.8 9.8zM213.5 24.2c-5.7 4.4-14.9 21-25.5 45.9-6.1 14.1-6.2 14.5-5.8 22 .3 5.1 1.2 9 2.7 12.2 2.1 4.4 2.5 4.7 6.1 4.7 3.3 0 4.1-.5 5.9-3.6 1.2-1.9 2.1-4.3 2.1-5.3s.9-3 2-4.4c1.1-1.4 2-3.3 2-4.2 0-.9 1.1-3.3 2.5-5.3s2.5-4.4 2.5-5.3c0-2.4 4.2-12 5.1-11.7.4.2 1.8 1.8 3.1 3.7 8.4 12.4 23.7 11.1 45.9-3.9 5.9-4.1 8.8-4.5 7-1.2-1.7 3.2-4.1 17-4.1 23.4 0 7.7 2.9 14.8 5.9 14.8 1.1 0 3.6-.8 5.5-1.7 3-1.4 4.1-2.9 6.5-8.7 4.1-10.1 5-13.4 5.2-19.1.1-2.8.9-7 1.6-9.4.8-2.4 1.3-6.2 1.3-8.5-.1-6.2 1.1-14.6 2.1-14.6 1.3 0 0-5.1-1.7-7.1-.8-.8-1.4-1.9-1.4-2.4 0-1.1-6.1-7-8.7-8.4-3.8-2-6.9-1.4-8.2 1.6-1.5 3.7-6.1 8.7-14.6 16-9.4 8.1-15.5 11.5-19.7 11.1l-3.3-.3-.5-8.6c-.4-7.1-.9-9.2-3.2-12.7-1.5-2.2-3.8-4.4-5-4.7-1.3-.4-3.5-2-5-3.6-3.2-3.5-4.6-3.6-8.3-.7zM120.3 24.7c-1 2.4-.9 8.2.1 11.5.6 2.2.5 2.8-.7 2.8-1.7 0-1.7 1 .3 15.5l1.2 9-3.7 12.5c-5.2 17.4-4.6 27.3 1.9 31.5 2.5 1.7 2.9 1.6 15.3-3.5 23.7-9.7 34.2-16.2 40.4-24.7 5.8-8.1 4.1-18.9-4.7-29.1-4.8-5.7-19.2-15.9-25.6-18.2-2.9-1-9-3.5-13.6-5.4-9.6-4.1-10-4.2-10.9-1.9zm21.2 22.8c3.7 1.4 8 3.2 9.6 4.1 4.2 2.1 12.9 10.7 12.9 12.6 0 3.4-5.1 7.5-16.2 13.1-6.3 3.1-11.9 5.7-12.4 5.7-.6 0-1-6.1-.9-14.8 0-8.1-.3-16.6-.8-19-.4-2.3-.3-4.2.2-4.2s3.9 1.1 7.6 2.5zM318.2 26c-2.5 1.8-4.2 3.8-4.2 5 0 1.7-1.7 6.3-4 11.1-.4.8-.6 2.6-.3 4 .2 1.3-.7 6-2.2 10.4-1.7 5.2-2.9 12.2-3.6 20.1-1 11.7-.9 12.3 1.7 20.5 3.7 12 5.6 13.5 13.3 10.8 4.7-1.7 5.3-3.7 4.6-14.7-.9-11.8.9-23.2 5.9-37.9 1.9-5.8 3-10.5 2.5-10.8-.5-.4-.9-2.5-.9-4.9 0-2.3-.6-4.8-1.2-5.4-.7-.7-2-3.4-2.8-6-.8-2.6-2.2-4.8-3.1-5-.8-.1-3.4 1.1-5.7 2.8zM403.6 27.9c-.8 2.7-2 6-2.7 7.2-.6 1.3-2 7.1-3 12.9-1 5.9-2.8 13.3-4 16.6-2.3 6.1-10.1 15.6-11.6 14.1-1-1-1.1-23.8-.1-25.2.3-.6 1.4-4.1 2.2-7.8 1.8-7.7 1.2-10-4.1-14.8-2.9-2.7-10.4-6.9-12.3-6.9-.6 0-1.9 1.9-2.9 4.2-1 2.4-7.5 16-14.4 30.4-11.4 23.5-12.6 26.5-12 30 .8 5.7 6 16.2 9 18.1 2.3 1.6 2.7 1.5 6-.2 4-2.2 4.9-3.5 5.8-9 .4-2.2 1.7-5.4 2.9-7 1.2-1.7 2.8-4.4 3.5-6l1.3-3 3 5.9c1.7 3.3 5.6 8.6 8.8 11.8 5.3 5.2 6.2 5.8 10.1 5.8 3.2 0 5.2-.8 8.5-3.2 2.4-1.8 4.4-3.6 4.4-4.1 0-.4.7-1.5 1.6-2.5 4.9-5.5 10.4-18.3 10.4-24.6.1-4.9 3.6-20.8 5.4-24.3 3-5.6 3.1-9.6.5-13.6-1.3-2-2.9-3.7-3.6-3.7-.7 0-2.8-1.4-4.6-3-4.9-4.2-6.4-3.9-8.1 1.9zM442.3 25.9c-2.2 1.6-4.3 4-4.6 5.3-.3 1.2-1.1 3.9-1.8 5.8-2 5.8-2.2 6.3-2.4 10.5-.2 2.2-1.3 6.9-2.5 10.5-1.9 5.7-4.4 23.6-4.1 29.6.1 3.8 5.1 18.3 6.8 20 2.2 2.2 8.7 1.3 11.9-1.7 2.4-2.3 2.4-2.5 1.8-13.4-.8-12.9.7-22.1 6-37.8 1.9-5.3 3-9.9 2.6-10.2-.4-.2-1-2.4-1.4-4.7-.3-2.4-1.3-5.7-2-7.3-.8-1.7-1.8-4.3-2.3-6-1.1-4-3.1-4.1-8-.6zM488.5 24.7c-6.1.7-7.3 1.3-7.9 3.8-.9 3.7 1.1 10.1 4.2 13.6l2.8 3.1 10.9-1.1c16.3-1.6 15.8-1.8 9.6 3.9-2.9 2.8-5.6 5-5.9 5-.3 0-1.5.8-2.6 1.8-1.2 1-5.5 3.9-9.6 6.5-4.1 2.5-8.4 5.4-9.5 6.4-1.1 1-4.7 3.6-7.9 5.8-6.3 4.2-8.9 8.5-10.1 16.8-.7 4.6-.6 5.1 3.7 12.9 1.9 3.6 6.5 7.1 8.2 6.5.8-.3 1.7.1 2 .9 1.1 3 19 1.1 25.3-2.7 1.7-1.1 3.3-1.5 3.5-1 .4 1.1 18.3-4.5 24.5-7.7 6.4-3.3 9.1-8.4 5.9-11.1-1.1-.9-1.6-.9-2.2.1-.6.9-1 .5-1.4-1.2-.3-1.4-1.8-3.1-3.2-3.9-2.3-1.3-3.3-1.3-9.4.7-22.9 7.1-28.2 8.4-30.5 7.2-1-.6-1.9-1.5-1.9-2 0-1.3 7-6.7 20.6-15.8 6.7-4.5 14-10.2 16.3-12.7 2.2-2.4 6.9-6.6 10.3-9.3C540.9 46 545 40.9 545 37.7c0-2.9-6.1-11.7-8.4-12.2-2.9-.5-44.4-1.3-48.1-.8zM589 26c-14.7 2.3-33.5 7.3-36.9 9.8-2.3 1.8-2.6 2.5-2.3 7.7.1 3.6 1 7.2 2.3 9.5l2.1 3.6-6.3 12.9-6.2 12.8.6 7.3c1.2 14.2 6.2 18.8 20.2 18.8 17.2.1 34.9-2.6 40.9-6.4 4.6-2.8 6.9-7.2 5.5-10.4-.7-1.4-1.7-2.6-2.3-2.6-.6 0-2-1.2-3.1-2.6-2-2.5-2.2-2.5-7.5-1.5-15.8 3.2-35 4.6-35 2.5 0-1.2 5.1-10.3 6.2-11 .7-.4 6-.8 11.8-.8 9-.1 11.2-.4 15-2.4 7.4-3.8 10.3-6.6 9.5-9.1-.3-1.1-1.2-2.1-2-2.1-.7 0-2.7-1.6-4.5-3.6l-3.1-3.6-10.3.7-10.3.7-.5-2.6c-.6-2.8 1.8-4.2 8.4-5 2-.2 4.5-.9 5.7-1.5 1.1-.6 6.2-2 11.4-3 5.2-1.1 10.8-2.6 12.5-3.5 6-3.1 8.2-9.5 4-11.7-1.3-.6-3.1-1.9-4.1-2.8-2.5-2.1-8.2-2.2-21.7-.1z"/></svg>
