<?xml version="1.0" standalone="no"?>
<!DOCTYPE svg PUBLIC "-//W3C//DTD SVG 20010904//EN"
 "http://www.w3.org/TR/2001/REC-SVG-20010904/DTD/svg10.dtd">
<svg version="1.0" xmlns="http://www.w3.org/2000/svg"
 width="628.000000pt" height="118.000000pt" viewBox="0 0 628.000000 118.000000"
 preserveAspectRatio="xMidYMid meet">

<g transform="translate(0.000000,118.000000) scale(0.100000,-0.100000)"
fill="#000000" stroke="none">
<path d="M631 1069 c-51 -75 -107 -119 -151 -119 -23 0 -43 -7 -54 -19 -21
-23 -116 -201 -116 -217 0 -6 -40 -94 -89 -195 -99 -206 -126 -276 -112 -293
5 -6 12 -25 15 -41 4 -18 21 -42 41 -58 29 -23 41 -27 71 -21 19 4 38 13 41
20 3 8 11 14 18 14 16 0 45 33 45 52 0 26 32 122 47 139 7 8 13 23 13 31 0 9
7 18 15 22 8 3 15 12 15 21 0 26 17 17 24 -12 15 -69 71 -86 189 -59 93 22
137 21 137 -2 0 -30 -27 -58 -70 -71 l-41 -12 35 -39 c22 -24 33 -45 30 -57
-4 -13 5 -23 30 -37 71 -38 167 8 221 106 28 53 29 57 19 127 -10 72 -10 73
16 86 28 15 72 59 88 89 8 16 4 23 -25 43 -18 13 -38 23 -42 23 -5 0 -14 7
-21 16 -9 10 -26 14 -49 12 l-36 -3 -17 70 c-10 38 -27 130 -39 205 -12 74
-28 145 -35 156 -8 14 -41 31 -94 48 -45 14 -82 26 -83 26 -1 0 -17 -23 -36
-51z m54 -411 l22 -93 -24 -7 c-38 -10 -183 -21 -183 -14 0 22 148 221 157
212 3 -3 16 -47 28 -98z"/>
<path d="M2135 938 c-57 -44 -149 -210 -255 -459 -61 -141 -62 -145 -58 -220
3 -51 12 -90 27 -122 21 -44 25 -47 61 -47 33 0 41 5 59 36 12 19 21 43 21 53
0 10 9 30 20 44 11 14 20 33 20 42 0 9 11 33 25 53 14 20 25 44 25 53 0 24 42
120 51 117 4 -2 18 -18 31 -37 84 -124 237 -111 459 39 59 41 88 45 70 12 -17
-32 -41 -170 -41 -234 0 -77 29 -148 59 -148 11 0 36 8 55 17 30 14 41 29 65
87 41 101 50 134 52 191 1 28 9 70 16 94 8 24 13 62 13 85 -1 62 11 146 21
146 13 0 0 51 -17 71 -8 8 -14 19 -14 24 0 11 -61 70 -87 84 -38 20 -69 14
-82 -16 -15 -37 -61 -87 -146 -160 -94 -81 -155 -115 -197 -111 l-33 3 -5 86
c-4 71 -9 92 -32 127 -15 22 -38 44 -50 47 -13 4 -35 20 -50 36 -32 35 -46 36
-83 7z"/>
<path d="M1203 933 c-10 -24 -9 -82 1 -115 6 -22 5 -28 -7 -28 -17 0 -17 -10
3 -155 l12 -90 -37 -125 c-52 -174 -46 -273 19 -315 25 -17 29 -16 153 35 237
97 342 162 404 247 58 81 41 189 -47 291 -48 57 -192 159 -256 182 -29 10 -90
35 -136 54 -96 41 -100 42 -109 19z m212 -228 c37 -14 80 -32 96 -41 42 -21
129 -107 129 -126 0 -34 -51 -75 -162 -131 -63 -31 -119 -57 -124 -57 -6 0
-10 61 -9 148 0 81 -3 166 -8 190 -4 23 -3 42 2 42 5 0 39 -11 76 -25z"/>
<path d="M3182 920 c-25 -18 -42 -38 -42 -50 0 -17 -17 -63 -40 -111 -4 -8 -6
-26 -3 -40 2 -13 -7 -60 -22 -104 -17 -52 -29 -122 -36 -201 -10 -117 -9 -123
17 -205 37 -120 56 -135 133 -108 47 17 53 37 46 147 -9 118 9 232 59 379 19
58 30 105 25 108 -5 4 -9 25 -9 49 0 23 -6 48 -12 54 -7 7 -20 34 -28 60 -8
26 -22 48 -31 50 -8 1 -34 -11 -57 -28z"/>
<path d="M4036 901 c-8 -27 -20 -60 -27 -72 -6 -13 -20 -71 -30 -129 -10 -59
-28 -133 -40 -166 -23 -61 -101 -156 -116 -141 -10 10 -11 238 -1 252 3 6 14
41 22 78 18 77 12 100 -41 148 -29 27 -104 69 -123 69 -6 0 -19 -19 -29 -42
-10 -24 -75 -160 -144 -304 -114 -235 -126 -265 -120 -300 8 -57 60 -162 90
-181 23 -16 27 -15 60 2 40 22 49 35 58 90 4 22 17 54 29 70 12 17 28 44 35
60 l13 30 30 -59 c17 -33 56 -86 88 -118 53 -52 62 -58 101 -58 32 0 52 8 85
32 24 18 44 36 44 41 0 4 7 15 16 25 49 55 104 183 104 246 1 49 36 208 54
243 30 56 31 96 5 136 -13 20 -29 37 -36 37 -7 0 -28 14 -46 30 -49 42 -64 39
-81 -19z"/>
<path d="M4423 921 c-22 -16 -43 -40 -46 -53 -3 -12 -11 -39 -18 -58 -20 -58
-22 -63 -24 -105 -2 -22 -13 -69 -25 -105 -19 -57 -44 -236 -41 -296 1 -38 51
-183 68 -200 22 -22 87 -13 119 17 24 23 24 25 18 134 -8 129 7 221 60 378 19
53 30 99 26 102 -4 2 -10 24 -14 47 -3 24 -13 57 -20 73 -8 17 -18 43 -23 60
-11 40 -31 41 -80 6z"/>
<path d="M4885 933 c-61 -7 -73 -13 -79 -38 -9 -37 11 -101 42 -136 l28 -31
109 11 c163 16 158 18 96 -39 -29 -28 -56 -50 -59 -50 -3 0 -15 -8 -26 -18
-12 -10 -55 -39 -96 -65 -41 -25 -84 -54 -95 -64 -11 -10 -47 -36 -79 -58 -63
-42 -89 -85 -101 -168 -7 -46 -6 -51 37 -129 19 -36 65 -71 82 -65 8 3 17 -1
20 -9 11 -30 190 -11 253 27 17 11 33 15 35 10 4 -11 183 45 245 77 64 33 91
84 59 111 -11 9 -16 9 -22 -1 -6 -9 -10 -5 -14 12 -3 14 -18 31 -32 39 -23 13
-33 13 -94 -7 -229 -71 -282 -84 -305 -72 -10 6 -19 15 -19 20 0 13 70 67 206
158 67 45 140 102 163 127 22 24 69 66 103 93 67 52 108 103 108 135 0 29 -61
117 -84 122 -29 5 -444 13 -481 8z"/>
<path d="M5890 920 c-147 -23 -335 -73 -369 -98 -23 -18 -26 -25 -23 -77 1
-36 10 -72 23 -95 l21 -36 -63 -129 -62 -128 6 -73 c12 -142 62 -188 202 -188
172 -1 349 26 409 64 46 28 69 72 55 104 -7 14 -17 26 -23 26 -6 0 -20 12 -31
26 -20 25 -22 25 -75 15 -158 -32 -350 -46 -350 -25 0 12 51 103 62 110 7 4
60 8 118 8 90 1 112 4 150 24 74 38 103 66 95 91 -3 11 -12 21 -20 21 -7 0
-27 16 -45 36 l-31 36 -103 -7 -103 -7 -5 26 c-6 28 18 42 84 50 20 2 45 9 57
15 11 6 62 20 114 30 52 11 108 26 125 35 60 31 82 95 40 117 -13 6 -31 19
-41 28 -25 21 -82 22 -217 1z"/>
</g>
</svg>
